<svg fill="none" height="32" width="32" xmlns="http://www.w3.org/2000/svg"><path d="M2 12.133c0-3.547 0-5.32.69-6.675A6.333 6.333 0 015.458 2.69C6.813 2 8.586 2 12.133 2h7.734c3.547 0 5.32 0 6.675.69a6.333 6.333 0 012.768 2.768c.69 1.355.69 3.128.69 6.675v7.734c0 3.547 0 5.32-.69 6.675a6.333 6.333 0 01-2.768 2.768c-1.355.69-3.128.69-6.675.69h-7.734c-3.547 0-5.32 0-6.675-.69a6.333 6.333 0 01-2.768-2.768C2 25.187 2 23.414 2 19.867z" fill="#001e36"/><path d="M8 22.516V10.203c0-.083.035-.131.117-.131 1.205 0 2.41-.072 3.616-.072 1.957 0 4.076.67 4.819 2.716.175.503.268 1.017.268 1.556 0 1.029-.233 1.878-.7 2.549-1.304 1.871-3.563 1.842-5.588 1.842v3.841c.016.114-.081.168-.175.168H8.14c-.093 0-.14-.048-.14-.156zm2.543-10.135v4.02c.803.06 1.644.066 2.415-.19.852-.246 1.319-.984 1.319-1.867.023-.753-.387-1.476-1.085-1.747-.763-.317-1.826-.336-2.649-.216zm13.554 3.226a4.316 4.316 0 00-1.118-.404c-.5-.118-2.47-.53-2.47.5.018.576.93.857 1.334 1.022 1.416.486 3.018 1.355 2.986 3.101.043 2.175-2.063 3.044-3.87 3.044-.94.01-1.919-.136-2.78-.54a.255.255 0 01-.13-.23v-2.081c-.01-.083.08-.156.15-.096.843.51 1.842.757 2.817.77.43 0 1.284-.041 1.278-.674 0-.607-1.021-.886-1.428-1.04a6.84 6.84 0 01-1.662-.867 2.704 2.704 0 01-1.156-2.235c-.004-2.047 1.936-2.966 3.682-2.967.816-.006 1.693.054 2.453.386.11.032.132.147.132.25v1.946c.007.12-.128.162-.218.115z" fill="#31a8ff"/></svg>-.1364-.1315-.2312v-2.0806c-.0093-.0834.0803-.1563.1503-.0963.843.5098 1.8422.7574 2.8175.7706.4305 0 1.2837-.0417 1.2773-.6743 0-.607-1.0207-.8861-1.4276-1.0403-.5898-.2105-1.149-.5022-1.6623-.8669-.7174-.5117-1.1674-1.3321-1.1552-2.2347-.0042-2.0474 1.9351-2.9664 3.6816-2.9668.8164-.0068 1.6932.0537 2.4532.3853.1093.0321.1319.1473.1315.2504v1.9458c.0069.1208-.1272.1619-.218.1156z"/></g></svg>