<svg width="33" height="33" viewBox="0 0 33 33" fill="none" xmlns="http://www.w3.org/2000/svg">
<g clip-path="url(#clip0_1227_142)">
<path d="M26.569 9.85455C26.8747 8.86854 26.9727 7.8299 26.857 6.80411C26.7412 5.77833 26.4142 4.78765 25.8965 3.89455C25.8087 3.7425 25.6825 3.61624 25.5304 3.52847C25.3783 3.4407 25.2058 3.39451 25.0303 3.39455C23.8655 3.39211 22.7163 3.66213 21.6745 4.18303C20.6327 4.70393 19.7272 5.46127 19.0303 6.39455H16.0303C15.3334 5.46127 14.4278 4.70393 13.386 4.18303C12.3442 3.66213 11.195 3.39211 10.0303 3.39455C9.8547 3.39451 9.68221 3.4407 9.53015 3.52847C9.37808 3.61624 9.25181 3.7425 9.16402 3.89455C8.64633 4.78765 8.31931 5.77833 8.20356 6.80411C8.08782 7.8299 8.18586 8.86854 8.49152 9.85455C7.87368 10.9329 7.54272 12.1518 7.53027 13.3945V14.3945C7.53238 16.0866 8.14661 17.7207 9.25955 18.9951C10.3725 20.2696 11.909 21.0983 13.5853 21.3283C12.901 22.2039 12.5296 23.2833 12.5303 24.3945V25.3945H9.53027C8.73462 25.3945 7.97156 25.0785 7.40895 24.5159C6.84634 23.9533 6.53027 23.1902 6.53027 22.3945C6.53027 21.7379 6.40094 21.0878 6.14967 20.4811C5.8984 19.8745 5.5301 19.3233 5.06581 18.859C4.60151 18.3947 4.05032 18.0264 3.44369 17.7751C2.83706 17.5239 2.18688 17.3945 1.53027 17.3945C1.26506 17.3945 1.0107 17.4999 0.823167 17.6874C0.63563 17.875 0.530273 18.1293 0.530273 18.3945C0.530273 18.6598 0.63563 18.9141 0.823167 19.1017C1.0107 19.2892 1.26506 19.3945 1.53027 19.3945C2.32592 19.3945 3.08898 19.7106 3.65159 20.2732C4.2142 20.8358 4.53027 21.5989 4.53027 22.3945C4.53027 23.7206 5.05706 24.9924 5.99474 25.9301C6.93242 26.8678 8.20419 27.3945 9.53027 27.3945H12.5303V29.3945C12.5303 29.6598 12.6356 29.9141 12.8232 30.1017C13.0107 30.2892 13.2651 30.3945 13.5303 30.3945C13.7955 30.3945 14.0498 30.2892 14.2374 30.1017C14.4249 29.9141 14.5303 29.6598 14.5303 29.3945V24.3945C14.5303 23.5989 14.8463 22.8358 15.409 22.2732C15.9716 21.7106 16.7346 21.3945 17.5303 21.3945C18.3259 21.3945 19.089 21.7106 19.6516 22.2732C20.2142 22.8358 20.5303 23.5989 20.5303 24.3945V29.3945C20.5303 29.6598 20.6356 29.9141 20.8232 30.1017C21.0107 30.2892 21.2651 30.3945 21.5303 30.3945C21.7955 30.3945 22.0498 30.2892 22.2374 30.1017C22.4249 29.9141 22.5303 29.6598 22.5303 29.3945V24.3945C22.5309 23.2833 22.1595 22.2039 21.4753 21.3283C23.1516 21.0983 24.6881 20.2696 25.801 18.9951C26.9139 17.7207 27.5282 16.0866 27.5303 14.3945V13.3945C27.5178 12.1518 27.1869 10.9329 26.569 9.85455ZM25.5303 14.3945C25.5303 15.7206 25.0035 16.9924 24.0658 17.9301C23.1281 18.8678 21.8564 19.3945 20.5303 19.3945H14.5303C13.2042 19.3945 11.9324 18.8678 10.9947 17.9301C10.0571 16.9924 9.53027 15.7206 9.53027 14.3945V13.3945C9.54253 12.3946 9.84192 11.4192 10.3928 10.5845C10.4955 10.4492 10.562 10.2899 10.586 10.1217C10.6101 9.95355 10.5909 9.78201 10.5303 9.6233C10.2698 8.95154 10.1444 8.23499 10.1614 7.51471C10.1783 6.79442 10.3372 6.08456 10.629 5.4258C11.4474 5.51384 12.2355 5.78494 12.9349 6.21901C13.6342 6.65308 14.2269 7.23899 14.669 7.9333C14.7591 8.07418 14.8831 8.19022 15.0296 8.2708C15.1762 8.35138 15.3406 8.39393 15.5078 8.39455H19.5515C19.7194 8.39455 19.8845 8.3523 20.0318 8.2717C20.179 8.19109 20.3036 8.07471 20.394 7.9333C20.8361 7.23893 21.4287 6.65297 22.1281 6.21889C22.8275 5.78482 23.6156 5.51375 24.434 5.4258C24.7254 6.08472 24.8839 6.79467 24.9004 7.51496C24.9169 8.23524 24.7911 8.95171 24.5303 9.6233C24.4698 9.78049 24.4496 9.95029 24.4714 10.1173C24.4933 10.2843 24.5565 10.4432 24.6553 10.5795C25.2116 11.4142 25.5154 12.3916 25.5303 13.3945V14.3945Z" fill="black"/>
</g>
<defs>
<clipPath id="clip0_1227_142">
<rect width="32" height="32" fill="white" transform="translate(0.530273 0.394531)"/>
</clipPath>
</defs>
</svg>
